<svg id="svg" version="1." xmlns="http://www.w3.org/2000/svg" xmlns:xlink="http://www.w3.org/1999/xlink" width="400" height="400" viewBox="0, 0, 400,400"><g id="svgg"><path id="path0" d="M83.467 71.467 C 83.320 71.613,83.200 118.053,83.200 174.667 L 83.200 277.600 98.000 277.600 L 112.800 277.600 112.800 229.600 L 112.800 181.600 138.000 181.600 C 151.860 181.600,163.200 181.684,163.200 181.788 C 163.200 181.891,162.412 183.196,161.450 184.688 C 151.406 200.254,147.146 223.381,150.592 243.626 C 156.086 275.893,182.336 302.870,214.400 309.199 C 216.654 309.644,217.904 310.313,223.800 314.229 C 250.102 331.697,273.170 341.016,293.200 342.266 L 297.000 342.503 308.484 331.369 C 314.800 325.245,319.921 320.187,319.863 320.130 C 319.806 320.072,318.598 320.379,317.179 320.811 C 305.381 324.407,294.599 323.287,274.600 316.387 C 270.004 314.801,257.539 310.072,257.284 309.818 C 257.217 309.750,258.476 309.381,260.081 308.997 C 305.127 298.215,331.864 254.833,321.757 208.927 C 315.179 179.050,290.955 155.207,259.886 148.027 C 250.121 145.770,230.996 144.905,222.200 146.322 C 212.483 147.887,205.358 149.864,198.066 153.019 L 193.026 155.200 152.913 155.200 L 112.800 155.200 112.800 126.400 L 112.800 97.600 153.000 97.600 L 193.200 97.600 193.200 84.400 L 193.200 71.200 138.467 71.200 C 108.363 71.200,83.613 71.320,83.467 71.467 M249.000 168.557 C 302.971 177.766,318.659 246.702,274.063 278.684 C 252.229 294.341,219.033 293.987,197.355 277.864 C 161.768 251.397,166.933 194.081,206.693 174.229 C 218.452 168.357,234.904 166.152,249.000 168.557 M255.244 188.224 C 254.513 188.839,253.924 189.798,253.769 190.624 C 253.456 192.291,253.506 192.288,250.343 190.808 C 247.817 189.626,244.072 188.679,243.104 188.978 C 242.827 189.063,242.108 189.241,241.507 189.372 C 234.825 190.835,235.911 202.459,243.654 212.354 C 244.064 212.879,244.400 213.433,244.400 213.586 C 244.400 213.866,222.566 233.720,222.068 233.893 C 221.921 233.944,220.509 232.954,218.932 231.693 C 203.656 219.480,192.915 224.104,199.402 240.100 C 199.601 240.592,199.497 240.800,199.051 240.800 C 189.338 240.800,194.987 257.512,207.442 265.628 C 213.617 269.651,219.600 268.860,219.600 264.020 C 219.600 262.995,219.625 262.997,221.913 264.155 C 236.056 271.317,241.041 260.148,230.630 244.623 C 229.612 243.105,228.829 241.741,228.890 241.593 C 228.950 241.444,234.009 236.813,240.132 231.301 L 251.264 221.278 254.685 224.023 C 269.467 235.883,280.195 230.875,273.798 215.100 C 273.570 214.538,273.724 214.400,274.577 214.400 C 280.279 214.400,280.818 207.276,275.686 199.725 C 269.162 190.126,259.467 184.671,255.244 188.224 " stroke="none" fill="#eeeeee" fill-rule="evenodd"></path><path id="path1" d="M183.600 0.452 C 153.388 2.903,124.584 11.825,99.800 26.408 C 97.820 27.573,95.559 28.845,94.777 29.235 C 92.793 30.224,83.130 36.702,82.400 37.533 C 81.748 38.275,77.970 41.168,75.378 42.911 C 68.466 47.556,47.681 68.352,42.905 75.400 C 41.132 78.016,38.265 81.756,37.539 82.400 C 35.242 84.438,26.922 98.255,20.559 110.600 C 0.582 149.354,-5.296 198.859,4.648 244.600 C 6.972 255.292,10.931 267.993,14.871 277.400 C 20.107 289.899,33.593 313.743,37.746 317.843 C 38.216 318.307,39.410 319.802,40.400 321.165 C 50.548 335.141,65.873 350.476,78.610 359.400 C 79.866 360.280,81.367 361.474,81.947 362.053 C 84.446 364.552,95.205 371.258,106.400 377.294 C 165.867 409.359,244.964 407.436,302.000 372.539 C 303.430 371.664,304.922 370.828,305.315 370.681 C 306.429 370.265,316.087 363.751,317.620 362.382 C 318.375 361.708,320.137 360.311,321.536 359.278 C 333.210 350.656,351.335 332.971,356.800 324.871 C 358.131 322.899,361.628 318.372,362.479 317.522 C 363.320 316.680,370.040 306.640,370.859 305.000 C 371.189 304.340,372.478 302.044,373.722 299.898 C 408.899 239.257,409.006 161.439,373.995 100.600 C 372.729 98.400,371.194 95.700,370.583 94.600 C 369.072 91.880,363.498 83.622,362.385 82.454 C 361.300 81.316,359.339 78.766,357.347 75.904 C 351.934 68.125,330.708 46.819,324.488 42.921 C 323.150 42.082,318.466 38.448,317.529 37.521 C 316.668 36.670,306.202 29.650,305.281 29.306 C 304.906 29.166,303.430 28.338,302.000 27.466 C 268.676 7.139,224.738 -2.886,183.600 0.452 M193.200 84.400 L 193.200 97.600 153.000 97.600 L 112.800 97.600 112.800 126.400 L 112.800 155.200 152.913 155.200 L 193.026 155.200 198.066 153.019 C 205.358 149.864,212.483 147.887,222.200 146.322 C 230.996 144.905,250.121 145.770,259.886 148.027 C 290.955 155.207,315.179 179.050,321.757 208.927 C 331.864 254.833,305.127 298.215,260.081 308.997 C 258.476 309.381,257.217 309.750,257.284 309.818 C 257.539 310.072,270.004 314.801,274.600 316.387 C 294.599 323.287,305.381 324.407,317.179 320.811 C 318.598 320.379,319.806 320.072,319.863 320.130 C 319.921 320.187,314.800 325.245,308.484 331.369 L 297.000 342.503 293.200 342.266 C 273.170 341.016,250.102 331.697,223.800 314.229 C 217.904 310.313,216.654 309.644,214.400 309.199 C 182.336 302.870,156.086 275.893,150.592 243.626 C 147.146 223.381,151.406 200.254,161.450 184.688 C 162.412 183.196,163.200 181.891,163.200 181.788 C 163.200 181.684,151.860 181.600,138.000 181.600 L 112.800 181.600 112.800 229.600 L 112.800 277.600 98.000 277.600 L 83.200 277.600 83.200 174.667 C 83.200 118.053,83.320 71.613,83.467 71.467 C 83.613 71.320,108.363 71.200,138.467 71.200 L 193.200 71.200 193.200 84.400 M226.800 168.175 C 165.316 177.017,153.252 261.008,210.000 285.138 C 244.060 299.622,285.202 282.538,296.615 249.173 C 311.981 204.251,274.920 161.255,226.800 168.175 M262.759 188.015 C 276.043 194.043,285.162 214.400,274.577 214.400 C 273.724 214.400,273.570 214.538,273.798 215.100 C 280.195 230.875,269.467 235.883,254.685 224.023 L 251.264 221.278 240.132 231.301 C 234.009 236.813,228.950 241.444,228.890 241.593 C 228.829 241.741,229.612 243.105,230.630 244.623 C 241.041 260.148,236.056 271.317,221.913 264.155 C 219.625 262.997,219.600 262.995,219.600 264.020 C 219.600 268.860,213.617 269.651,207.442 265.628 C 194.987 257.512,189.338 240.800,199.051 240.800 C 199.497 240.800,199.601 240.592,199.402 240.100 C 192.915 224.104,203.656 219.480,218.932 231.693 C 220.509 232.954,221.921 233.944,222.068 233.893 C 222.566 233.720,244.400 213.866,244.400 213.586 C 244.400 213.433,244.064 212.879,243.654 212.354 C 235.911 202.459,234.825 190.835,241.507 189.372 C 242.108 189.241,242.827 189.063,243.104 188.978 C 244.072 188.679,247.817 189.626,250.343 190.808 C 253.506 192.288,253.456 192.291,253.769 190.624 C 254.370 187.419,258.685 186.167,262.759 188.015 " stroke="none" fill="#d58d18" fill-rule="evenodd"></path></g></svg>